<svg width="48" height="48" viewBox="0 0 48 48" fill="none" xmlns="http://www.w3.org/2000/svg">
<circle cx="24" cy="24" r="23" fill="url(#paint0_linear_75_1231)" stroke="url(#paint1_linear_75_1231)" stroke-width="2"/>
<g clip-path="url(#clip0_75_1231)">
<path d="M24 39.0625C32.3188 39.0625 39.0625 32.3188 39.0625 24C39.0625 15.6812 32.3188 8.9375 24 8.9375C15.6812 8.9375 8.9375 15.6812 8.9375 24C8.9375 32.3188 15.6812 39.0625 24 39.0625Z" stroke="#003399" stroke-width="2" stroke-miterlimit="10" stroke-linecap="round" stroke-linejoin="round"/>
<path d="M24 35.25C30.2132 35.25 35.25 30.2132 35.25 24C35.25 17.7868 30.2132 12.75 24 12.75C17.7868 12.75 12.75 17.7868 12.75 24C12.75 30.2132 17.7868 35.25 24 35.25Z" stroke="#003399" stroke-width="2" stroke-miterlimit="10" stroke-linecap="round" stroke-linejoin="round"/>
<path d="M24 16.8359L26.1245 21.1406L30.875 21.8309L27.4375 25.1816L28.249 29.9129L24 27.6791L19.751 29.9129L20.5625 25.1816L17.125 21.8309L21.8755 21.1406L24 16.8359Z" stroke="#003399" stroke-width="2" stroke-miterlimit="10" stroke-linecap="round" stroke-linejoin="round"/>
</g>
<defs>
<linearGradient id="paint0_linear_75_1231" x1="0" y1="0" x2="48" y2="48" gradientUnits="userSpaceOnUse">
<stop stop-color="#124B84" stop-opacity="0.25"/>
<stop offset="1" stop-color="#124B84" stop-opacity="0"/>
</linearGradient>
<linearGradient id="paint1_linear_75_1231" x1="4.71429" y1="9.85714" x2="42" y2="40.7143" gradientUnits="userSpaceOnUse">
<stop stop-color="white" stop-opacity="0.5"/>
<stop offset="1" stop-color="white" stop-opacity="0.02"/>
</linearGradient>
<clipPath id="clip0_75_1231">
<rect width="32" height="32" fill="white" transform="translate(8 8)"/>
</clipPath>
</defs>
</svg>
